HIERARCHY
ROOT Hips
{
	OFFSET 0.000000 0.000000 0.000000 
	CHANNELS 6 Xposition Yposition Zposition Zrotation Yrotation Xrotation
	JOINT LeftUpLeg
	{
		OFFSET 1.363060 -1.794630 0.839290 
		CHANNELS 3 Zrotation Yrotation Xrotation
		JOINT LeftLeg
		{
			OFFSET 2.448110 -6.726130 0.000000 
			CHANNELS 3 Zrotation Yrotation Xrotation
			JOINT LeftFoot
			{
				OFFSET 2.562200 -7.039590 0.000000 
				CHANNELS 3 Zrotation Yrotation Xrotation
				JOINT LeftToeBase
				{
					OFFSET 0.157640 -0.433110 2.322550 
					CHANNELS 3 Zrotation Yrotation Xrotation
					End Site
					{
						OFFSET 0.000000 0.000000 0.000000 
					}
				}
			}
		}
	}
	JOINT RightUpLeg
	{
		OFFSET -1.305520 -1.794630 0.839290 
		CHANNELS 3 Zrotation Yrotation Xrotation
		JOINT RightLeg
		{
			OFFSET -2.542530 -6.985550 0.000000 
			CHANNELS 3 Zrotation Yrotation Xrotation
			JOINT RightFoot
			{
				OFFSET -2.568260 -7.056230 0.000000 
				CHANNELS 3 Zrotation Yrotation Xrotation
				JOINT RightToeBase
				{
					OFFSET -0.164730 -0.452590 2.363150 
					CHANNELS 3 Zrotation Yrotation Xrotation
					End Site
					{
						OFFSET 0.000000 0.000000 0.000000 
					}
				}
			}
		}
	}
	JOINT Spine
	{
		OFFSET 0.028270 2.035590 -0.193380 
		CHANNELS 3 Zrotation Yrotation Xrotation
		JOINT Spine1
		{
			OFFSET 0.056720 2.048850 -0.042750 
			CHANNELS 3 Zrotation Yrotation Xrotation
			JOINT Neck1
			{
				OFFSET -0.054170 1.746240 0.172020 
				CHANNELS 3 Zrotation Yrotation Xrotation
				JOINT Head
				{
					OFFSET 0.104070 1.761360 -0.123970 
					CHANNELS 3 Zrotation Yrotation Xrotation
					End Site
					{
						OFFSET 0.000000 0.000000 0.000000 
					}
				}
			}
			JOINT LeftArm
			{
				OFFSET 3.362410 1.200890 -0.311210 
				CHANNELS 3 Zrotation Yrotation Xrotation
				JOINT LeftForeArm
				{
					OFFSET 4.983000 -0.000000 -0.000000 
					CHANNELS 3 Zrotation Yrotation Xrotation
					JOINT LeftHand
					{
						OFFSET 3.483560 -0.000000 -0.000000 
						CHANNELS 3 Zrotation Yrotation Xrotation
						JOINT LeftHandIndex1
						{
							OFFSET 0.715260 -0.000000 -0.000000 
							CHANNELS 3 Zrotation Yrotation Xrotation
							End Site
							{
								OFFSET 0.000000 0.000000 0.000000 
							}
						}
					}
				}
			}
			JOINT RightArm
			{
				OFFSET -3.136600 1.374050 -0.404650 
				CHANNELS 3 Zrotation Yrotation Xrotation
				JOINT RightForeArm
				{
					OFFSET -5.241900 -0.000000 -0.000000 
					CHANNELS 3 Zrotation Yrotation Xrotation
					JOINT RightHand
					{
						OFFSET -3.444170 -0.000000 -0.000000 
						CHANNELS 3 Zrotation Yrotation Xrotation
						JOINT RightHandIndex1
						{
							OFFSET -0.622530 -0.000000 -0.000000 
							CHANNELS 3 Zrotation Yrotation Xrotation
							End Site
							{
								OFFSET 0.000000 0.000000 0.000000 
							}
						}
					}
				}
			}
		}
	}
}
MOTION
Frames: 11
Frame Time: 0.041667
0.436805 21.255106 -0.791931 -1.557485 1.461928 8.461853 -13.637491 1.400562 -31.838776 -0.113004 7.846544 20.660721 2.080384 4.102947 29.671602 0.027900 1.078200 2.963900 17.972056 3.740650 -31.644598 -0.584400 -8.182377 21.008393 -0.256370 -13.302114 24.449639 -0.718000 -5.414800 15.095600 1.329369 1.189138 -0.912829 1.918032 0.132676 5.048427 3.880869 -2.538845 26.688802 0.357700 -0.560400 10.353500 -95.236637 -9.298449 9.548626 2.783060 -7.686200 0.007184 -0.420042 -0.495651 4.351879 -7.125000 0.000000 0.000000 94.106371 8.289128 3.120173 -7.740430 17.576756 -1.326060 1.002146 0.664154 43.175655 7.125000 0.000000 0.000000 
0.432239 21.085051 -0.553286 -1.588222 1.579202 8.346380 -13.446536 1.321068 -31.866904 -0.362529 7.259138 18.928422 2.124909 4.626756 30.170978 0.030600 1.129100 3.104000 17.779865 3.810704 -31.556638 -0.413759 -7.771449 19.769178 -0.225480 -13.938319 24.805634 -0.787900 -5.666300 15.819200 1.324276 1.157084 -0.913595 1.876316 0.122849 5.194633 3.923029 -2.564579 26.944548 0.384200 -0.564100 10.425400 -95.216974 -8.669271 9.490031 2.743449 -7.629023 0.013111 -0.418666 -0.504424 3.994104 -7.125000 0.000000 0.000000 94.027898 7.702000 2.262437 -7.558111 17.301797 -1.264261 1.012369 0.664877 43.676206 7.125000 0.000000 0.000000 
0.428181 20.900487 -0.312612 -1.608815 1.696542 8.184766 -13.244673 1.168175 -31.835063 -0.563466 6.735358 17.391170 2.140653 5.202525 30.550517 0.029200 1.103300 3.033000 17.570953 3.895818 -31.399075 -0.272496 -7.407271 18.684635 -0.191204 -14.509676 25.094465 -0.858100 -5.907300 16.515700 1.319016 1.119676 -0.910244 1.837529 0.109012 5.356340 3.961885 -2.582969 27.202537 0.408800 -0.563800 10.501100 -95.192144 -8.041025 9.423796 2.729170 -7.624138 0.014676 -0.415751 -0.514429 3.596274 -7.125000 0.000000 0.000000 93.936150 7.137273 1.489134 -7.395144 17.059120 -1.210112 1.020838 0.666663 44.102815 7.125000 0.000000 0.000000 
0.424223 20.700805 -0.070416 -1.617968 1.807947 7.959133 -13.058886 1.005345 -31.762596 -0.719078 6.290075 16.086296 2.149851 5.786193 30.918050 0.024700 1.014600 2.789000 17.355506 3.992636 -31.168092 -0.162996 -7.103357 17.790648 -0.147532 -15.015539 25.285781 -0.922500 -6.119300 17.130900 1.314366 1.079520 -0.901886 1.810059 0.092015 5.521729 4.001834 -2.595454 27.454044 0.434500 -0.561100 10.575100 -95.172231 -7.413539 9.349246 2.737569 -7.666136 0.012361 -0.411609 -0.525200 3.201169 -7.125000 0.000000 0.000000 93.828633 6.594928 0.801712 -7.254636 16.853390 -1.164894 1.027001 0.669192 44.463805 7.125000 0.000000 0.000000 
0.420266 20.485801 0.172794 -1.619165 1.902983 7.655164 -12.916121 0.902677 -31.666805 -0.833585 5.934751 15.042788 2.171387 6.340087 31.352044 0.019700 0.907000 2.492800 17.153131 4.085124 -30.868468 -0.086597 -6.871433 17.115424 -0.092439 -15.476627 25.388095 -0.978500 -6.296900 17.648400 1.308012 1.051188 -0.887893 1.783353 0.079971 5.683630 4.043148 -2.610859 27.708282 0.458500 -0.558500 10.656100 -95.141451 -6.804448 9.286830 2.751323 -7.718374 0.009365 -0.407945 -0.535312 2.854684 -7.125000 0.000000 0.000000 93.710902 6.065507 0.219921 -7.138574 16.688974 -1.128299 1.031923 0.672575 44.763482 7.125000 0.000000 0.000000 
0.416005 20.255477 0.415903 -1.603739 1.989325 7.268058 -12.853973 0.908657 -31.564151 -0.912728 5.675938 14.280364 2.222043 6.796803 31.891044 0.015700 0.809200 2.224000 16.973745 4.125920 -30.519373 -0.043666 -6.718602 16.673960 -0.034553 -15.906858 25.462867 -1.031000 -6.458700 18.121200 1.298957 1.032882 -0.869844 1.756827 0.072402 5.827430 4.090483 -2.633780 27.961293 0.484100 -0.558800 10.741700 -95.101127 -6.216524 9.242190 2.758287 -7.754555 0.009302 -0.407692 -0.543562 2.608418 -7.125000 0.000000 0.000000 93.586139 5.553955 -0.272974 -7.041963 16.556269 -1.098432 1.036412 0.675522 45.050936 7.125000 0.000000 0.000000 
0.411337 20.010034 0.658302 -1.583068 2.063779 6.799260 -12.855248 1.014187 -31.443181 -0.960462 5.515755 13.803770 2.301817 7.135464 32.512514 0.012800 0.731400 2.010000 16.837972 4.108407 -30.132279 -0.032403 -6.647681 16.470938 0.011101 -16.293475 25.577916 -1.085700 -6.622400 18.601300 1.287702 1.028624 -0.849826 1.728058 0.072054 5.942299 4.144418 -2.666067 28.214452 0.511500 -0.562700 10.834100 -95.049293 -5.649406 9.218033 2.749551 -7.755891 0.013946 -0.411546 -0.549546 2.465445 -7.125000 0.000000 0.000000 93.459544 5.064702 -0.697173 -6.957361 16.441576 -1.072357 1.041510 0.677107 45.369597 7.125000 0.000000 0.000000 
0.405960 19.749879 0.899585 -1.562287 2.126729 6.255327 -12.887136 1.161494 -31.272462 -0.978692 5.453451 13.609521 2.397217 7.363013 33.148744 0.010700 0.667400 1.834000 16.751677 4.033207 -29.718012 -0.050562 -6.658356 16.505951 0.024638 -16.582663 25.789621 -1.144200 -6.792500 19.102100 1.274730 1.038717 -0.829953 1.696934 0.079153 6.022864 4.212530 -2.712103 28.467516 0.546400 -0.573100 10.931900 -94.991571 -5.107042 9.213903 2.722442 -7.716827 0.022142 -0.417006 -0.553968 2.366718 -7.125000 0.000000 0.000000 93.330428 4.594870 -1.057904 -6.878689 16.334540 -1.048030 1.047457 0.677188 45.721210 7.125000 0.000000 0.000000 
0.400075 19.475011 1.139041 -1.537858 2.178602 5.649523 -12.917414 1.263320 -31.040119 -0.965174 5.497701 13.720063 2.493411 7.482935 33.730531 0.007800 0.570800 1.568600 16.698803 3.932476 -29.289522 -0.096778 -6.750121 16.779907 -0.010085 -16.709116 26.122583 -1.197900 -6.944500 19.551100 1.260745 1.056945 -0.815970 1.668248 0.090403 6.052186 4.273361 -2.760025 28.722970 0.578000 -0.585100 11.037600 -94.931732 -4.569407 9.217232 2.678797 -7.642161 0.033260 -0.423550 -0.557075 2.276108 -7.125000 0.000000 0.000000 93.201283 4.145661 -1.366417 -6.799876 16.223046 -1.023189 1.054595 0.675354 46.110034 7.125000 0.000000 0.000000 
0.393378 19.185228 1.377280 -1.523996 2.217764 4.994896 -12.917272 1.265739 -30.743083 -0.917341 5.649267 14.146054 2.542163 7.445982 33.993665 0.006300 0.511200 1.404800 16.692835 3.868826 -28.876832 -0.164770 -6.927876 17.357323 -0.079565 -16.156810 26.089281 -1.085000 -6.620300 18.595100 1.249176 1.080727 -0.808719 1.654198 0.102863 6.036016 4.330026 -2.806087 28.982196 0.610500 -0.597800 11.155100 -94.887227 -4.047051 9.216442 2.619524 -7.534416 0.045422 -0.427827 -0.560134 2.132251 -7.125000 0.000000 0.000000 93.061117 3.717229 -1.592095 -6.720629 16.106742 -0.997960 1.061713 0.673413 46.473846 7.125000 0.000000 0.000000 
0.386174 18.877993 1.614403 -1.524078 2.242277 4.311129 -12.915767 1.193605 -30.448081 -0.834202 5.918564 14.951545 2.524471 6.947923 33.662221 0.004400 0.428500 1.177400 16.758118 3.823818 -28.524312 -0.256895 -7.206985 18.301101 -0.246260 -14.659137 25.820396 -1.030500 -6.457000 18.116200 1.240961 1.110993 -0.814068 1.653241 0.117909 5.960229 4.383512 -2.850851 29.248023 0.644100 -0.611300 11.290400 -94.860466 -3.520775 9.214132 2.552360 -7.409213 0.057142 -0.429691 -0.563132 1.920160 -7.125000 0.000000 0.000000 92.904192 3.286382 -1.674248 -6.650036 16.003639 -0.975632 1.067326 0.673312 46.730164 7.125000 0.000000 0.000000 
